<svg xmlns:x="http://ns.adobe.com/Extensibility/1.0/" xmlns:i="http://ns.adobe.com/AdobeIllustrator/10.0/" xmlns:graph="http://ns.adobe.com/Graphs/1.0/" xmlns="http://www.w3.org/2000/svg" xmlns:xlink="http://www.w3.org/1999/xlink" version="1.0" id="Layer_1" x="0px" y="0px" width="100px" height="100px" viewBox="0 0 100 100" enable-background="new 0 0 100 100" xml:space="preserve">
<switch>
	<foreignObject requiredExtensions="http://ns.adobe.com/AdobeIllustrator/10.0/" x="0" y="0" width="1" height="1">
		</foreignObject>
	<g i:extraneous="self">
		<path d="M62.962,11.123c-0.507,0.323-1.522,6.01-2.746,13.761c-0.288-0.686-0.795-1.259-1.433-1.634    c1.009-0.594,1.694-1.679,1.694-2.932v-3.282c0-1.25-0.685-2.334-1.691-2.929c1.007-0.594,1.691-1.678,1.691-2.929V7.897    c0-1.881-1.531-3.412-3.413-3.412c-0.915,0-1.742,0.366-2.356,0.955V3.412c0-1.881-1.53-3.412-3.412-3.412    s-3.413,1.531-3.413,3.412v2.026c-0.613-0.587-1.44-0.953-2.354-0.953c-1.882,0-3.413,1.531-3.413,3.412v3.282    c0,1.251,0.684,2.335,1.691,2.929c-1.007,0.594-1.691,1.678-1.691,2.929v3.282c0,1.252,0.686,2.337,1.694,2.932    c-0.656,0.385-1.171,0.981-1.454,1.693c-1.227-7.731-2.249-13.405-2.77-13.733c0.065,2.528-2.721,58.992-0.499,64.843    c1.545,4.067,6.909,8.589,7.874,9.988l0.122,0.178L47.173,100h8.109l0.028-13.463l0.131-0.18    c0.733-1.006,5.664-5.117,8.041-10.437C65.954,70.389,62.977,13.641,62.962,11.123z M54.586,7.897    c0-1.366,1.112-2.477,2.479-2.477s2.479,1.111,2.479,2.477v3.282c0,1.312-1.028,2.379-2.32,2.462    c-0.053-0.002-0.104-0.016-0.158-0.016s-0.104,0.014-0.158,0.016c-1.292-0.083-2.32-1.149-2.32-2.462V7.897z M55.343,14.108    c-0.229,0.135-0.443,0.289-0.635,0.472v-0.943C54.899,13.819,55.114,13.973,55.343,14.108z M54.586,17.037    c0-1.312,1.028-2.378,2.32-2.461c0.054,0.002,0.104,0.016,0.158,0.016s0.105-0.014,0.158-0.016c1.292,0.083,2.32,1.149,2.32,2.461    v3.282c0,1.32-1.039,2.391-2.341,2.464c-0.047-0.002-0.091-0.014-0.138-0.014s-0.09,0.012-0.138,0.014    c-1.301-0.073-2.341-1.145-2.341-2.464V17.037z M55.347,23.25c-0.23,0.135-0.446,0.289-0.639,0.473v-0.947    C54.9,22.96,55.116,23.114,55.347,23.25z M54.586,26.181c0-1.319,1.04-2.391,2.341-2.463c0.048,0.001,0.091,0.014,0.138,0.014    s0.091-0.012,0.138-0.014c1.302,0.073,2.341,1.144,2.341,2.463v3.028c-0.061,0.391-0.12,0.783-0.181,1.18    c-0.35,0.858-1.171,1.474-2.14,1.536c-0.053-0.003-0.104-0.016-0.158-0.016s-0.104,0.013-0.158,0.016    c-1.292-0.083-2.32-1.15-2.32-2.462V26.181z M52.499,70.64c-0.354,0.818-0.651,1.641-0.896,2.452    c-0.103,0.013-0.203,0.03-0.308,0.03c-0.098,0-0.19-0.018-0.286-0.029c-0.241-0.793-0.545-1.623-0.919-2.476    c-0.304-0.695-0.675-2.157-1.093-4.18c0.349-0.856,1.168-1.473,2.136-1.537c0.055,0.003,0.106,0.017,0.162,0.017    s0.107-0.014,0.162-0.017c0.964,0.064,1.779,0.676,2.131,1.527C53.171,68.462,52.803,69.937,52.499,70.64z M48.007,35.32v3.282    c0,1.254-0.939,2.281-2.149,2.445c-0.11-0.011-0.217-0.033-0.33-0.033s-0.22,0.022-0.33,0.033    c-0.134-0.018-0.264-0.051-0.391-0.089c-0.372-2.458-0.742-4.912-1.105-7.3c0.421-0.456,1.009-0.756,1.668-0.799    c0.053,0.003,0.104,0.016,0.158,0.016s0.104-0.013,0.158-0.016C46.979,32.941,48.007,34.008,48.007,35.32z M47.25,32.391    c0.229-0.134,0.442-0.288,0.632-0.47v0.94C47.693,32.679,47.479,32.526,47.25,32.391z M48.737,65.134    c-0.115-0.59-0.232-1.212-0.353-1.869c0.295,0.479,0.704,0.883,1.189,1.169C49.257,64.62,48.978,64.859,48.737,65.134z     M48.007,44.424v3.282c0,1.131-0.766,2.075-1.804,2.369c-0.406-2.612-0.819-5.322-1.231-8.043    c0.076-0.018,0.149-0.042,0.228-0.052c0.11,0.011,0.217,0.033,0.33,0.033s0.219-0.022,0.33-0.033    C47.068,42.144,48.007,43.171,48.007,44.424z M47.283,41.514c0.216-0.13,0.419-0.279,0.6-0.453v0.905    C47.702,41.792,47.499,41.644,47.283,41.514z M47.883,50.166v0.94c-0.19-0.182-0.404-0.335-0.633-0.471    C47.479,50.501,47.693,50.348,47.883,50.166z M46.389,51.264c0.941,0.35,1.619,1.241,1.619,2.302v3.281    c0,0.548-0.184,1.049-0.485,1.46C47.157,56.117,46.776,53.743,46.389,51.264z M43.539,32.573    c-0.021-0.136-0.042-0.271-0.062-0.406c0.106,0.08,0.215,0.156,0.331,0.224C43.713,32.447,43.626,32.51,43.539,32.573z     M47.883,59.307v1.13c-0.056-0.326-0.113-0.658-0.169-0.995C47.769,59.395,47.831,59.356,47.883,59.307z M53.018,64.434    c0.479-0.283,0.882-0.679,1.176-1.147c-0.118,0.646-0.233,1.259-0.346,1.839C53.608,64.855,53.331,64.618,53.018,64.434z     M59.031,32.558c-0.081-0.057-0.159-0.116-0.245-0.167c0.105-0.062,0.205-0.132,0.302-0.204    C59.069,32.311,59.05,32.433,59.031,32.558z M55.343,32.391c-0.229,0.135-0.443,0.289-0.635,0.472V31.92    C54.899,32.103,55.114,32.256,55.343,32.391z M54.586,35.32c0-1.312,1.028-2.378,2.32-2.461c0.054,0.003,0.104,0.016,0.158,0.016    s0.105-0.013,0.158-0.016c0.646,0.042,1.228,0.33,1.646,0.772c-0.362,2.398-0.733,4.864-1.106,7.332    c-0.119,0.035-0.242,0.067-0.368,0.084c-0.109-0.011-0.217-0.033-0.329-0.033s-0.22,0.022-0.329,0.033    c-1.21-0.164-2.149-1.191-2.149-2.445V35.32z M55.311,41.514c-0.216,0.131-0.421,0.279-0.603,0.454V41.06    C54.89,41.234,55.095,41.383,55.311,41.514z M54.586,44.424c0-1.253,0.939-2.281,2.149-2.443c0.109,0.011,0.217,0.033,0.329,0.033    s0.22-0.022,0.329-0.033c0.071,0.009,0.139,0.032,0.207,0.047c-0.411,2.721-0.823,5.429-1.229,8.041    c-1.028-0.3-1.786-1.239-1.786-2.363V44.424z M55.344,50.636c-0.229,0.135-0.444,0.289-0.636,0.472v-0.943    C54.899,50.348,55.114,50.501,55.344,50.636z M54.586,53.565c0-1.054,0.669-1.939,1.599-2.295    c-0.386,2.472-0.764,4.837-1.127,7.021c-0.294-0.408-0.472-0.903-0.472-1.444V53.565z M54.867,59.432    c-0.054,0.315-0.106,0.628-0.159,0.934v-1.06C54.757,59.352,54.815,59.388,54.867,59.432z M48.817,3.412    c0-1.366,1.112-2.477,2.479-2.477c1.366,0,2.479,1.111,2.479,2.477v3.282c0,1.312-1.028,2.378-2.321,2.462    C51.4,9.153,51.35,9.14,51.296,9.14s-0.105,0.013-0.158,0.016c-1.292-0.083-2.32-1.15-2.32-2.462V3.412z M53.651,9.151v0.943    c-0.19-0.183-0.405-0.336-0.634-0.472C53.246,9.488,53.461,9.334,53.651,9.151z M49.574,9.623    c-0.228,0.135-0.442,0.288-0.632,0.47v-0.94C49.132,9.335,49.346,9.488,49.574,9.623z M48.817,12.551    c0-1.312,1.029-2.378,2.32-2.461c0.053,0.003,0.104,0.016,0.158,0.016s0.104-0.013,0.157-0.016    c1.293,0.083,2.321,1.15,2.321,2.461v3.282c0,1.32-1.04,2.391-2.341,2.464c-0.048-0.002-0.091-0.014-0.138-0.014    s-0.091,0.012-0.138,0.014c-1.301-0.073-2.341-1.144-2.341-2.464V12.551z M53.651,18.291v0.947    c-0.191-0.184-0.407-0.338-0.638-0.474C53.244,18.629,53.46,18.475,53.651,18.291z M49.578,18.764    c-0.229,0.135-0.445,0.289-0.636,0.472v-0.943C49.133,18.475,49.348,18.629,49.578,18.764z M48.817,21.695    c0-1.319,1.04-2.39,2.341-2.463c0.047,0.002,0.091,0.014,0.138,0.014s0.09-0.012,0.138-0.014c1.301,0.073,2.341,1.145,2.341,2.463    v3.282c0,1.312-1.028,2.379-2.321,2.462c-0.053-0.002-0.104-0.016-0.157-0.016s-0.105,0.014-0.158,0.016    c-1.292-0.083-2.32-1.149-2.32-2.462V21.695z M53.651,27.435v0.943c-0.19-0.183-0.405-0.336-0.634-0.472    C53.246,27.771,53.461,27.617,53.651,27.435z M49.574,27.906c-0.228,0.135-0.442,0.288-0.632,0.47v-0.939    C49.132,27.618,49.346,27.771,49.574,27.906z M48.817,30.834c0-1.312,1.029-2.378,2.32-2.461c0.053,0.002,0.104,0.016,0.158,0.016    s0.104-0.014,0.157-0.016c1.293,0.083,2.321,1.149,2.321,2.461v3.282c0,1.254-0.939,2.282-2.149,2.445    c-0.109-0.011-0.217-0.033-0.329-0.033s-0.22,0.022-0.33,0.033c-1.209-0.163-2.149-1.191-2.149-2.445V30.834z M53.651,36.574    v0.908c-0.181-0.174-0.386-0.323-0.602-0.454C53.266,36.897,53.471,36.749,53.651,36.574z M49.542,37.028    c-0.216,0.13-0.419,0.279-0.601,0.452v-0.905C49.123,36.75,49.326,36.897,49.542,37.028z M48.817,39.939    c0-1.253,0.939-2.281,2.149-2.444c0.11,0.01,0.217,0.033,0.33,0.033s0.22-0.023,0.329-0.033c1.21,0.163,2.149,1.19,2.149,2.444    v3.282c0,1.312-1.028,2.378-2.321,2.462c-0.053-0.002-0.104-0.016-0.157-0.016s-0.105,0.014-0.158,0.016    c-1.292-0.084-2.32-1.15-2.32-2.462V39.939z M53.651,45.679v0.942c-0.19-0.182-0.405-0.336-0.634-0.471    C53.246,46.016,53.461,45.862,53.651,45.679z M49.574,46.151c-0.228,0.134-0.442,0.288-0.632,0.47v-0.94    C49.132,45.862,49.346,46.016,49.574,46.151z M48.817,49.08c0-1.313,1.029-2.379,2.32-2.462c0.053,0.002,0.104,0.016,0.158,0.016    s0.104-0.014,0.157-0.016c1.293,0.083,2.321,1.149,2.321,2.462v3.281c0,1.317-1.036,2.387-2.334,2.464    c-0.049-0.002-0.096-0.015-0.145-0.015c-0.05,0-0.096,0.013-0.146,0.015c-1.297-0.077-2.333-1.146-2.333-2.464V49.08z     M53.651,54.819v0.945c-0.19-0.184-0.407-0.337-0.637-0.473C53.244,55.157,53.461,55.003,53.651,54.819z M49.577,55.292    c-0.229,0.136-0.444,0.289-0.635,0.472V54.82C49.132,55.004,49.348,55.157,49.577,55.292z M48.817,58.224    c0-1.318,1.036-2.388,2.333-2.464c0.05,0.002,0.096,0.015,0.146,0.015c0.049,0,0.096-0.013,0.145-0.015    c1.298,0.076,2.334,1.146,2.334,2.464v3.281c0,1.311-1.027,2.376-2.316,2.462c-0.055-0.003-0.106-0.017-0.162-0.017    s-0.107,0.014-0.162,0.017c-1.29-0.086-2.316-1.151-2.316-2.462V58.224z M43.05,11.179V7.897c0-1.366,1.112-2.477,2.479-2.477    c1.366,0,2.479,1.111,2.479,2.477v3.282c0,1.312-1.029,2.379-2.321,2.462c-0.053-0.002-0.104-0.016-0.158-0.016    s-0.104,0.014-0.158,0.016C44.079,13.558,43.05,12.492,43.05,11.179z M47.883,13.638v0.939c-0.19-0.182-0.404-0.335-0.632-0.47    C47.479,13.974,47.693,13.82,47.883,13.638z M43.05,20.318v-3.282c0-1.312,1.029-2.378,2.321-2.461    c0.053,0.002,0.104,0.016,0.158,0.016s0.104-0.014,0.158-0.016c1.292,0.083,2.321,1.149,2.321,2.461v3.282    c0,1.32-1.04,2.391-2.341,2.464c-0.047-0.002-0.091-0.014-0.138-0.014s-0.091,0.012-0.138,0.014    C44.09,22.709,43.05,21.638,43.05,20.318z M47.883,22.778v0.944c-0.191-0.184-0.406-0.337-0.636-0.472    C47.477,23.115,47.692,22.96,47.883,22.778z M43.05,26.181c0-1.319,1.04-2.391,2.341-2.463c0.047,0.001,0.091,0.014,0.138,0.014    s0.091-0.012,0.138-0.014c1.301,0.073,2.341,1.144,2.341,2.463v3.282c0,1.312-1.029,2.379-2.321,2.462    c-0.053-0.003-0.104-0.016-0.158-0.016s-0.104,0.013-0.158,0.016c-1.036-0.067-1.892-0.77-2.195-1.72    c-0.042-0.274-0.084-0.545-0.126-0.816V26.181z M51.299,74.057c0.005,0,0.012-0.002,0.018-0.002l-0.009,0.031L51.299,74.057z"/>
	</g>
</switch>
</svg>
